HIERARCHY
ROOT mixamorig:Hips
{
	OFFSET 0.000000 104.274902 0.000000
	CHANNELS 6 Xposition Yposition Zposition Xrotation Yrotation Zrotation
	JOINT mixamorig:Spine
	{
		OFFSET 0.000000 10.181549 0.131524
		CHANNELS 6 Xposition Yposition Zposition Xrotation Yrotation Zrotation
		JOINT mixamorig:Spine1
		{
			OFFSET 0.000000 9.893990 -1.470706
			CHANNELS 3 Xrotation Yrotation Zrotation
			JOINT mixamorig:Spine2
			{
				OFFSET 0.000000 9.220787 -1.370637
				CHANNELS 3 Xrotation Yrotation Zrotation
				JOINT mixamorig:Neck
				{
					OFFSET 0.000000 16.740372 -2.049022
					CHANNELS 6 Xposition Yposition Zposition Xrotation Yrotation Zrotation
					JOINT mixamorig:Head
					{
						OFFSET 0.000000 9.617859 1.684976
						CHANNELS 6 Xposition Yposition Zposition Xrotation Yrotation Zrotation
						JOINT mixamorig:HeadTop_End
						{
							OFFSET 0.000000 22.037384 7.501072
							CHANNELS 6 Xposition Yposition Zposition Xrotation Yrotation Zrotation
							End Site
							{
								OFFSET 0.000000 23.106567 -2.828246
							}
						}
					}
				}
				JOINT mixamorig:RightShoulder
				{
					OFFSET -4.570000 11.014877 -2.160840
					CHANNELS 6 Xposition Yposition Zposition Xrotation Yrotation Zrotation
					JOINT mixamorig:RightArm
					{
						OFFSET -10.592867 -0.524796 -2.232105
						CHANNELS 3 Xrotation Yrotation Zrotation
						JOINT mixamorig:RightForeArm
						{
							OFFSET -27.841497 0.000000 -0.000002
							CHANNELS 3 Xrotation Yrotation Zrotation
							JOINT mixamorig:RightHand
							{
								OFFSET -28.328812 0.000000 -0.000001
								CHANNELS 3 Xrotation Yrotation Zrotation
								JOINT mixamorig:RightHandThumb1
								{
									OFFSET -2.464798 -1.573990 2.681911
									CHANNELS 6 Xposition Yposition Zposition Xrotation Yrotation Zrotation
									JOINT mixamorig:RightHandThumb2
									{
										OFFSET -3.244781 -1.873383 1.873376
										CHANNELS 3 Xrotation Yrotation Zrotation
										JOINT mixamorig:RightHandThumb3
										{
											OFFSET -2.646263 -1.527817 1.527818
											CHANNELS 6 Xposition Yposition Zposition Xrotation Yrotation Zrotation
											JOINT mixamorig:RightHandThumb4
											{
												OFFSET -1.994591 -1.151581 1.151575
												CHANNELS 6 Xposition Yposition Zposition Xrotation Yrotation Zrotation
												End Site
												{
													OFFSET -1.860176 -1.142715 1.365483
												}
											}
										}
									}
								}
								JOINT mixamorig:RightHandIndex1
								{
									OFFSET -9.108299 -0.517883 2.259803
									CHANNELS 6 Xposition Yposition Zposition Xrotation Yrotation Zrotation
									JOINT mixamorig:RightHandIndex2
									{
										OFFSET -3.699997 0.000000 0.000000
										CHANNELS 3 Xrotation Yrotation Zrotation
										JOINT mixamorig:RightHandIndex3
										{
											OFFSET -2.850006 0.000000 0.000000
											CHANNELS 3 Xrotation Yrotation Zrotation
											JOINT mixamorig:RightHandIndex4
											{
												OFFSET -2.772194 0.000000 0.000000
												CHANNELS 3 Xrotation Yrotation Zrotation
												End Site
												{
													OFFSET -2.772202 0.000000 -0.000484
												}
											}
										}
									}
								}
								JOINT mixamorig:RightHandMiddle1
								{
									OFFSET -9.532501 0.000000 -0.000000
									CHANNELS 6 Xposition Yposition Zposition Xrotation Yrotation Zrotation
									JOINT mixamorig:RightHandMiddle2
									{
										OFFSET -3.699997 0.000000 0.000000
										CHANNELS 3 Xrotation Yrotation Zrotation
										JOINT mixamorig:RightHandMiddle3
										{
											OFFSET -2.949997 0.000000 0.000000
											CHANNELS 3 Xrotation Yrotation Zrotation
											JOINT mixamorig:RightHandMiddle4
											{
												OFFSET -2.946594 0.000000 0.000000
												CHANNELS 3 Xrotation Yrotation Zrotation
												End Site
												{
													OFFSET -2.946602 0.000000 -0.000982
												}
											}
										}
									}
								}
								JOINT mixamorig:RightHandRing1
								{
									OFFSET -9.103600 -0.043106 -1.865100
									CHANNELS 6 Xposition Yposition Zposition Xrotation Yrotation Zrotation
									JOINT mixamorig:RightHandRing2
									{
										OFFSET -3.379303 0.000000 0.000000
										CHANNELS 3 Xrotation Yrotation Zrotation
										JOINT mixamorig:RightHandRing3
										{
											OFFSET -2.889694 0.000000 0.000000
											CHANNELS 3 Xrotation Yrotation Zrotation
											JOINT mixamorig:RightHandRing4
											{
												OFFSET -2.638802 0.000000 0.000000
												CHANNELS 3 Xrotation Yrotation Zrotation
												End Site
												{
													OFFSET -2.638802 0.000000 0.004218
												}
											}
										}
									}
								}
								JOINT mixamorig:RightHandPinky1
								{
									OFFSET -8.076698 -0.486725 -3.806299
									CHANNELS 6 Xposition Yposition Zposition Xrotation Yrotation Zrotation
									JOINT mixamorig:RightHandPinky2
									{
										OFFSET -3.600006 0.000000 0.000000
										CHANNELS 3 Xrotation Yrotation Zrotation
										JOINT mixamorig:RightHandPinky3
										{
											OFFSET -2.099998 0.000000 0.000000
											CHANNELS 3 Xrotation Yrotation Zrotation
											JOINT mixamorig:RightHandPinky4
											{
												OFFSET -2.115791 0.000000 0.000000
												CHANNELS 3 Xrotation Yrotation Zrotation
												End Site
												{
													OFFSET -2.115799 0.000000 0.000174
												}
											}
										}
									}
								}
							}
						}
					}
				}
				JOINT mixamorig:LeftShoulder
				{
					OFFSET 4.570400 11.014679 -2.160816
					CHANNELS 6 Xposition Yposition Zposition Xrotation Yrotation Zrotation
					JOINT mixamorig:LeftArm
					{
						OFFSET 10.592373 -0.524597 -2.232116
						CHANNELS 3 Xrotation Yrotation Zrotation
						JOINT mixamorig:LeftForeArm
						{
							OFFSET 27.841488 0.000000 0.000001
							CHANNELS 3 Xrotation Yrotation Zrotation
							JOINT mixamorig:LeftHand
							{
								OFFSET 28.328808 0.000000 -0.000000
								CHANNELS 3 Xrotation Yrotation Zrotation
								JOINT mixamorig:LeftHandThumb1
								{
									OFFSET 2.466103 -1.576202 2.681698
									CHANNELS 6 Xposition Yposition Zposition Xrotation Yrotation Zrotation
									JOINT mixamorig:LeftHandThumb2
									{
										OFFSET 3.243317 -1.872528 1.872530
										CHANNELS 3 Xrotation Yrotation Zrotation
										JOINT mixamorig:LeftHandThumb3
										{
											OFFSET 2.647881 -1.528763 1.528754
											CHANNELS 6 Xposition Yposition Zposition Xrotation Yrotation Zrotation
											JOINT mixamorig:LeftHandThumb4
											{
												OFFSET 1.998924 -1.154083 1.154080
												CHANNELS 6 Xposition Yposition Zposition Xrotation Yrotation Zrotation
												End Site
												{
													OFFSET 1.884041 -1.149155 1.337651
												}
											}
										}
									}
								}
								JOINT mixamorig:LeftHandIndex1
								{
									OFFSET 9.109299 -0.518005 2.259900
									CHANNELS 6 Xposition Yposition Zposition Xrotation Yrotation Zrotation
									JOINT mixamorig:LeftHandIndex2
									{
										OFFSET 3.699997 0.000000 0.000000
										CHANNELS 3 Xrotation Yrotation Zrotation
										JOINT mixamorig:LeftHandIndex3
										{
											OFFSET 2.850006 0.000000 0.000000
											CHANNELS 3 Xrotation Yrotation Zrotation
											JOINT mixamorig:LeftHandIndex4
											{
												OFFSET 2.774895 0.000000 0.000000
												CHANNELS 3 Xrotation Yrotation Zrotation
												End Site
												{
													OFFSET 2.774902 0.000000 -0.000072
												}
											}
										}
									}
								}
								JOINT mixamorig:LeftHandMiddle1
								{
									OFFSET 9.533401 0.000000 0.000000
									CHANNELS 6 Xposition Yposition Zposition Xrotation Yrotation Zrotation
									JOINT mixamorig:LeftHandMiddle2
									{
										OFFSET 3.699997 0.000000 0.000000
										CHANNELS 3 Xrotation Yrotation Zrotation
										JOINT mixamorig:LeftHandMiddle3
										{
											OFFSET 2.949997 0.000000 0.000000
											CHANNELS 3 Xrotation Yrotation Zrotation
											JOINT mixamorig:LeftHandMiddle4
											{
												OFFSET 2.952896 0.000000 0.000000
												CHANNELS 3 Xrotation Yrotation Zrotation
												End Site
												{
													OFFSET 2.952904 0.000000 0.000165
												}
											}
										}
									}
								}
								JOINT mixamorig:LeftHandRing1
								{
									OFFSET 9.104500 -0.042999 -1.865101
									CHANNELS 6 Xposition Yposition Zposition Xrotation Yrotation Zrotation
									JOINT mixamorig:LeftHandRing2
									{
										OFFSET 3.149994 0.000000 0.000000
										CHANNELS 3 Xrotation Yrotation Zrotation
										JOINT mixamorig:LeftHandRing3
										{
											OFFSET 2.950005 0.000000 0.000000
											CHANNELS 3 Xrotation Yrotation Zrotation
											JOINT mixamorig:LeftHandRing4
											{
												OFFSET 2.644302 0.000000 0.000000
												CHANNELS 3 Xrotation Yrotation Zrotation
												End Site
												{
													OFFSET 2.644302 0.000000 0.000083
												}
											}
										}
									}
								}
								JOINT mixamorig:LeftHandPinky1
								{
									OFFSET 8.077805 -0.486893 -3.806302
									CHANNELS 6 Xposition Yposition Zposition Xrotation Yrotation Zrotation
									JOINT mixamorig:LeftHandPinky2
									{
										OFFSET 3.600006 0.000000 0.000000
										CHANNELS 3 Xrotation Yrotation Zrotation
										JOINT mixamorig:LeftHandPinky3
										{
											OFFSET 2.099998 0.000000 0.000000
											CHANNELS 3 Xrotation Yrotation Zrotation
											JOINT mixamorig:LeftHandPinky4
											{
												OFFSET 2.125496 0.000000 0.000000
												CHANNELS 3 Xrotation Yrotation Zrotation
												End Site
												{
													OFFSET 2.125504 0.000000 -0.001254
												}
											}
										}
									}
								}
							}
						}
					}
				}
			}
		}
	}
	JOINT mixamorig:RightUpLeg
	{
		OFFSET -8.207800 -6.751701 -1.599544
		CHANNELS 6 Xposition Yposition Zposition Xrotation Yrotation Zrotation
		JOINT mixamorig:RightLeg
		{
			OFFSET 0.000004 -44.370152 0.345934
			CHANNELS 3 Xrotation Yrotation Zrotation
			JOINT mixamorig:RightFoot
			{
				OFFSET 0.000004 -44.423664 -3.043535
				CHANNELS 3 Xrotation Yrotation Zrotation
				JOINT mixamorig:RightToeBase
				{
					OFFSET 0.000001 -8.728691 10.710592
					CHANNELS 3 Xrotation Yrotation Zrotation
					JOINT mixamorig:RightToe_End
					{
						OFFSET 0.000000 -0.000665 9.278101
						CHANNELS 3 Xrotation Yrotation Zrotation
						End Site
						{
							OFFSET 0.000000 -0.000665 9.278103
						}
					}
				}
			}
		}
	}
	JOINT mixamorig:LeftUpLeg
	{
		OFFSET 8.207800 -6.751701 -1.599544
		CHANNELS 6 Xposition Yposition Zposition Xrotation Yrotation Zrotation
		JOINT mixamorig:LeftLeg
		{
			OFFSET 0.000004 -44.370037 0.346940
			CHANNELS 3 Xrotation Yrotation Zrotation
			JOINT mixamorig:LeftFoot
			{
				OFFSET 0.000004 -44.423611 -3.044388
				CHANNELS 3 Xrotation Yrotation Zrotation
				JOINT mixamorig:LeftToeBase
				{
					OFFSET 0.000001 -8.728690 10.710592
					CHANNELS 3 Xrotation Yrotation Zrotation
					JOINT mixamorig:LeftToe_End
					{
						OFFSET 0.000000 -0.000680 9.278101
						CHANNELS 3 Xrotation Yrotation Zrotation
						End Site
						{
							OFFSET 0.000000 -0.000680 9.278101
						}
					}
				}
			}
		}
	}
}
MOTION
Frames: 4
Frame Time: 0.033333
5.097713 101.766151 86.972893 0.319439 -2.713557 5.991905 -0.000002 10.181547 0.131530 3.885926 -0.145673 -0.880600 1.362193 -0.309837 -1.536424 -3.131595 -0.300137 -2.049823 -0.000001 16.740353 -2.049014 -4.196150 0.557918 -3.354004 0.000001 9.617862 1.684982 -1.856509 0.653244 -1.282403 -0.000002 22.037399 7.501066 -0.000000 0.000000 0.000000 -4.570002 11.014865 -2.160829 -0.395930 9.937221 0.006173 4.589222 8.473283 74.412828 -0.000037 44.821197 0.000052 34.679200 25.575756 -23.161633 -2.464810 -1.573994 2.681911 16.122742 -7.432379 -13.786863 4.273082 -4.545291 -14.938056 -2.646275 -1.527814 1.527812 -13.829299 7.695618 9.048723 -1.994586 -1.151584 1.151574 0.000001 -0.000002 -0.000002 -9.108300 -0.517874 2.259808 -0.752295 1.578204 8.686026 0.622284 -3.364122 26.414286 -0.171141 -0.556140 17.102119 -0.000001 0.000001 0.000002 -9.532499 0.000008 0.000003 -0.728007 -3.929011 20.953953 1.185156 -4.375219 38.088628 0.823600 -3.078113 31.113783 0.000000 0.000003 -0.000001 -9.103601 -0.043108 -1.865095 1.531647 -8.997609 39.183392 0.721147 -2.608633 23.959004 -0.128619 -0.226061 20.374388 -0.000001 -0.000004 -0.000001 -8.076712 -0.486717 -3.806300 2.730618 -10.606837 44.493871 1.616650 -4.336394 49.147183 -0.376743 -2.609685 43.324013 -0.000001 0.000001 0.000002 4.570397 11.014667 -2.160806 5.887608 -14.299753 -7.641248 8.199600 3.226466 -70.289552 -0.000009 -27.673393 0.000023 37.272281 -5.590070 -1.656313 2.466095 -1.576216 2.681692 26.390668 6.870727 32.553966 -2.458077 28.156326 -16.095677 2.647907 -1.528741 1.528751 8.286861 -13.174649 4.425964 1.998909 -1.154069 1.154079 0.000002 0.000008 0.000003 9.109299 -0.518018 2.259893 9.080401 1.405333 -9.300734 0.266482 2.467984 -16.844368 -0.020224 0.181328 -3.878807 -0.000002 -0.000000 0.000001 9.533409 -0.000001 -0.000009 0.514728 7.313397 -16.169039 0.605013 3.427236 -26.926448 0.266463 1.829909 -15.811190 0.000001 0.000002 -0.000001 9.104508 -0.043000 -1.865109 0.680563 7.663011 -33.522288 0.409853 1.971599 -16.856376 0.289018 1.181815 -12.267588 -0.000002 -0.000005 0.000003 8.077789 -0.486896 -3.806315 3.315363 13.178874 -30.959926 0.484349 2.674395 -29.031856 0.073523 1.523478 -6.655224 0.000003 0.000003 0.000004 -8.207803 -6.751724 -1.599536 -24.587634 -2.763016 -6.673698 58.765370 9.044931 -4.721714 4.123566 -13.908969 4.768730 -2.498454 -0.147155 3.242907 -0.000004 0.000001 -0.000000 8.207798 -6.751711 -1.599541 -9.404162 6.536042 -9.200952 18.215708 -1.098243 -0.237643 -6.931749 -1.021429 4.585222 -3.878046 -0.000001 0.000000 -0.000000 -0.000000 0.000000 
4.864790 101.939407 92.261490 0.821715 -1.138855 4.954685 -0.000000 10.181535 0.131523 3.288593 -0.642078 -0.313023 1.409544 -1.372686 -1.154484 -3.107620 -1.351338 -1.700507 -0.000001 16.740339 -2.049009 -3.769862 0.668469 -3.147302 -0.000000 9.617840 1.684973 -1.506775 1.530172 -1.395227 0.000001 22.037354 7.501077 0.000000 -0.000000 -0.000000 -4.570001 11.014869 -2.160833 -0.499074 9.288055 0.935110 6.381112 5.127073 74.954844 -0.000018 41.764892 0.000061 38.630532 24.837588 -22.356399 -2.464808 -1.574010 2.681904 16.572689 -7.469258 -13.439927 4.446200 -4.186007 -15.156840 -2.646258 -1.527821 1.527808 -13.767296 7.492059 9.065992 -1.994574 -1.151585 1.151578 0.000004 -0.000002 -0.000004 -9.108321 -0.517899 2.259794 -0.663027 1.306007 8.261384 0.630763 -3.381045 26.601925 -0.169315 -0.575590 17.289244 0.000001 0.000003 0.000001 -9.532498 -0.000012 -0.000009 -0.554197 -4.266928 20.146174 1.183397 -4.372906 38.059491 0.822175 -3.075765 31.086213 0.000000 0.000000 0.000001 -9.103603 -0.043123 -1.865107 1.547677 -9.021995 38.798077 0.717916 -2.602971 23.893897 -0.129509 -0.219428 20.309371 0.000000 0.000005 0.000001 -8.076706 -0.486728 -3.806305 2.753339 -10.650792 44.238452 1.622265 -4.342182 49.227588 -0.373758 -2.618269 43.404052 0.000001 0.000000 0.000001 4.570399 11.014679 -2.160809 6.134059 -16.430220 -5.926965 6.344413 -0.070341 -68.759378 -0.000005 -29.874329 -0.000011 34.670221 -6.464760 3.397508 2.466100 -1.576204 2.681701 26.539523 6.905615 31.836796 -2.947093 27.529069 -15.664013 2.647900 -1.528764 1.528759 8.877051 -13.497498 7.289268 1.998914 -1.154091 1.154079 -0.000000 0.000002 -0.000005 9.109293 -0.518021 2.259895 8.861218 1.592935 -5.850784 0.267490 2.471330 -16.878915 -0.020128 0.184878 -3.913873 -0.000001 0.000000 0.000000 9.533401 0.000001 0.000001 0.434713 7.041121 -14.195787 0.601636 3.420222 -26.848383 0.264118 1.822436 -15.732835 0.000000 0.000002 0.000001 9.104499 -0.043014 -1.865103 0.684918 7.627019 -31.906682 0.409801 1.971473 -16.855189 0.288996 1.181749 -12.266859 -0.000004 -0.000000 -0.000003 8.077810 -0.486904 -3.806301 2.924342 12.769119 -29.421723 0.488743 2.684177 -29.138472 0.075452 1.534031 -6.761726 -0.000000 0.000001 0.000000 -8.207800 -6.751710 -1.599540 -29.370134 -2.749896 -4.814545 50.346141 9.475471 -4.523402 2.964498 -16.139332 5.518129 -4.487081 -0.025224 0.299266 0.000000 0.000001 -0.000000 8.207800 -6.751717 -1.599543 -6.244684 7.492488 -7.770064 17.638258 -4.239232 -0.453043 -9.048297 -1.157630 4.873322 -4.665598 0.000000 0.000001 0.000000 -0.000000 0.000000 
4.481280 101.935379 97.627480 1.115537 0.832726 3.361637 -0.000001 10.181548 0.131527 2.707285 -1.088269 0.477076 1.636660 -2.399840 -0.754085 -2.915117 -2.373450 -1.350104 -0.000002 16.740366 -2.049025 -3.736324 0.558761 -2.629120 -0.000001 9.617851 1.684989 -1.365901 1.849410 -1.263655 -0.000000 22.037384 7.501067 -0.000000 0.000000 0.000000 -4.570002 11.014863 -2.160836 -0.669635 7.757242 2.615167 8.488539 2.005031 74.611573 -0.000019 38.384854 0.000062 41.406618 23.148433 -20.359945 -2.464784 -1.573988 2.681906 16.738702 -8.069944 -13.459485 4.762322 -3.408409 -15.373641 -2.646270 -1.527825 1.527825 -13.680219 7.207327 9.090966 -1.994592 -1.151600 1.151575 0.000004 0.000002 -0.000006 -9.108284 -0.517874 2.259802 -0.470257 1.185172 6.819507 0.637899 -3.395259 26.759643 -0.167697 -0.591961 17.446472 0.000001 0.000000 -0.000001 -9.532492 -0.000012 0.000000 -0.358922 -4.549811 18.357091 1.182192 -4.371274 38.039133 0.821207 -3.074178 31.067768 0.000004 0.000002 0.000005 -9.103592 -0.043111 -1.865107 1.583728 -9.084636 37.655700 0.711908 -2.592317 23.771316 -0.131165 -0.206963 20.187020 0.000000 -0.000000 -0.000001 -8.076682 -0.486709 -3.806299 2.884500 -10.901636 43.026039 1.620482 -4.340345 49.202111 -0.374716 -2.615533 43.378671 -0.000000 -0.000001 -0.000001 4.570400 11.014699 -2.160817 6.661217 -18.757993 -3.287068 4.467640 -1.863742 -67.446889 0.000011 -32.937279 0.000023 31.249499 -8.856075 5.550263 2.466091 -1.576205 2.681701 26.694415 6.984827 31.068335 -3.433759 26.841122 -15.406386 2.647886 -1.528760 1.528763 9.011251 -14.161641 8.033756 1.998916 -1.154085 1.154083 0.000002 0.000000 0.000003 9.109294 -0.518011 2.259897 8.433818 1.781784 -4.066973 0.267517 2.471437 -16.880003 -0.020121 0.185039 -3.915321 -0.000001 -0.000001 0.000001 9.533401 0.000003 -0.000001 0.415176 6.968083 -13.553412 0.601535 3.420022 -26.846053 0.264033 1.822208 -15.730347 0.000001 0.000000 0.000002 9.104497 -0.043001 -1.865103 0.710973 7.659738 -31.287754 0.409822 1.971545 -16.855988 0.289032 1.181850 -12.268158 0.000004 0.000000 -0.000001 8.077788 -0.486911 -3.806301 2.796700 12.616030 -28.970333 0.489530 2.685932 -29.157760 0.075801 1.535947 -6.780980 0.000001 -0.000001 -0.000001 -8.207802 -6.751715 -1.599535 -33.631179 -4.279154 -3.007557 39.600586 9.218857 -4.617366 3.928865 -17.008976 6.353368 -1.379779 -0.000003 0.000001 -0.000000 -0.000001 -0.000000 8.207799 -6.751700 -1.599547 -3.297488 8.511474 -5.302984 17.559134 -7.010867 -0.606562 -10.912669 -3.081159 4.844456 -5.839315 -0.000001 0.000001 0.000000 -0.000000 0.000000 
4.121149 101.545959 103.160995 1.093287 2.678987 2.136447 0.000000 10.181571 0.131521 2.228625 -1.486361 0.723952 2.147106 -3.147482 -0.249759 -2.418050 -3.147706 -0.901472 -0.000000 16.740364 -2.049022 -4.162027 0.382082 -2.205431 -0.000000 9.617838 1.684977 -1.535697 1.704306 -0.995330 0.000001 22.037369 7.501079 -0.000001 -0.000000 -0.000000 -4.570001 11.014894 -2.160841 -0.804520 5.607803 4.388894 11.338732 -0.935334 73.783433 -0.000016 35.818663 0.000027 42.455742 20.920554 -16.710341 -2.464795 -1.574003 2.681905 17.090054 -9.025064 -13.381020 5.039513 -2.111123 -15.800386 -2.646266 -1.527813 1.527819 -13.575296 6.866063 9.122167 -1.994567 -1.151606 1.151569 0.000002 0.000000 -0.000004 -9.108299 -0.517904 2.259802 -0.223027 1.340871 4.765462 0.655362 -3.429517 27.141223 -0.163647 -0.631508 17.826939 0.000000 0.000003 0.000001 -9.532492 -0.000003 0.000005 -0.199553 -4.727608 16.102166 1.179847 -4.368174 37.999969 0.819296 -3.071028 31.030861 0.000001 0.000004 -0.000000 -9.103598 -0.043126 -1.865098 1.567931 -9.091828 35.828898 0.712581 -2.593487 23.784824 -0.130975 -0.208320 20.200370 0.000000 0.000003 0.000002 -8.076698 -0.486734 -3.806302 2.874606 -10.997010 41.612436 1.637951 -4.358071 49.450156 -0.365494 -2.641915 43.625473 0.000001 0.000001 -0.000001 4.570401 11.014709 -2.160815 7.365363 -21.197647 -0.380527 2.885255 -2.185812 -66.112358 -0.000015 -37.251944 -0.000020 25.521333 -10.779905 6.140997 2.466108 -1.576212 2.681704 26.855319 7.101760 30.256550 -3.931205 26.098038 -15.232150 2.647892 -1.528761 1.528761 9.014830 -15.183341 8.206307 1.998925 -1.154101 1.154086 0.000000 0.000003 -0.000000 9.109300 -0.518010 2.259897 7.853398 1.995888 -3.339859 0.266198 2.467098 -16.835168 -0.020251 0.180480 -3.870418 -0.000000 -0.000000 0.000000 9.533399 0.000005 -0.000000 0.388778 6.853563 -13.563234 0.602177 3.421332 -26.860930 0.264472 1.823570 -15.744708 0.000001 -0.000002 -0.000003 9.104506 -0.043008 -1.865103 0.769091 7.765930 -31.249072 0.409864 1.971671 -16.857247 0.289082 1.182014 -12.269716 0.000004 0.000000 0.000001 8.077804 -0.486899 -3.806304 2.732111 12.487865 -29.023171 0.487152 2.680673 -29.100427 0.074767 1.530268 -6.723710 0.000002 0.000000 -0.000001 -8.207799 -6.751697 -1.599547 -36.370932 -7.498613 -2.253088 27.366152 9.505702 -4.614404 2.977538 -13.720585 6.130477 -2.722203 0.000001 0.000003 0.000001 0.000001 -0.000000 8.207798 -6.751687 -1.599545 -0.342276 9.498355 -2.916433 18.092599 -7.057541 -0.735601 -12.788926 -7.215052 4.233691 -7.600234 -0.000000 -0.000001 -0.000000 -0.000000 0.000000 
